<svg width="20" height="20" viewBox="0 0 20 20" fill="none" xmlns="http://www.w3.org/2000/svg">
<g id="lucide/cookie" clip-path="url(#clip0_123_2325)">
<path id="Vector" d="M7.08317 7.08317V7.0915M13.3332 12.9165V12.9248M9.99984 9.99984V10.0082M9.16651 14.1665V14.1748M5.83317 11.6665V11.6748M9.99984 1.6665C8.35166 1.6665 6.7405 2.15525 5.37009 3.07092C3.99968 3.9866 2.93158 5.28809 2.30084 6.81081C1.67011 8.33353 1.50509 10.0091 1.82663 11.6256C2.14817 13.2421 2.94185 14.727 4.10728 15.8924C5.27272 17.0578 6.75758 17.8515 8.37409 18.173C9.9906 18.4946 11.6662 18.3296 13.1889 17.6988C14.7116 17.0681 16.0131 16 16.9288 14.6296C17.8444 13.2592 18.3332 11.648 18.3332 9.99984C17.754 10.1782 17.1372 10.1952 16.5491 10.0492C15.9609 9.90322 15.4237 9.59963 14.9952 9.17113C14.5667 8.74263 14.2631 8.20542 14.1171 7.61728C13.9711 7.02915 13.9882 6.41233 14.1665 5.83317C13.5873 6.0115 12.9705 6.02858 12.3824 5.88256C11.7943 5.73655 11.257 5.43296 10.8285 5.00446C10.4 4.57596 10.0965 4.03875 9.95045 3.45062C9.80443 2.86248 9.82151 2.24566 9.99984 1.6665Z" stroke="black" stroke-width="1.66667" stroke-linecap="round" stroke-linejoin="round"/>
</g>
<defs>
<clipPath id="clip0_123_2325">
<rect width="20" height="20" fill="white"/>
</clipPath>
</defs>
</svg>
