<svg width="13" height="14" viewBox="0 0 13 14" fill="none" xmlns="http://www.w3.org/2000/svg">
<g id="maki:danger">
<path id="Vector" d="M12.0813 12.7227C12.0496 12.8048 11.9937 12.8753 11.9209 12.9249C11.8481 12.9744 11.762 13.0006 11.674 13C11.622 13.0087 11.57 13.0087 11.518 13L6.49997 10.8853L1.47331 13C1.42027 13.0207 1.36367 13.0308 1.30674 13.0297C1.2498 13.0286 1.19365 13.0162 1.14149 12.9933C1.08933 12.9705 1.04219 12.9376 1.00276 12.8965C0.963337 12.8554 0.932394 12.8069 0.911707 12.7539L0.909974 12.7487C0.880353 12.6926 0.863385 12.6308 0.860264 12.5675C0.857143 12.5042 0.867946 12.441 0.891911 12.3823C0.915876 12.3236 0.95242 12.2709 0.998967 12.2279C1.04551 12.1849 1.10093 12.1526 1.16131 12.1333L5.36464 10.4L1.16131 8.66667C1.10427 8.64933 1.05142 8.62041 1.00607 8.58171C0.960724 8.54302 0.923845 8.49539 0.897745 8.44179C0.871644 8.38819 0.856883 8.32979 0.854385 8.27023C0.851886 8.21066 0.861704 8.15123 0.883224 8.09563C0.904745 8.04004 0.937504 7.98948 0.979455 7.94713C1.0214 7.90477 1.07164 7.87153 1.12703 7.84948C1.18241 7.82742 1.24175 7.81703 1.30133 7.81896C1.36092 7.82088 1.41946 7.83508 1.47331 7.86067L6.49997 9.94933L11.5266 7.86067C11.5805 7.83508 11.639 7.82088 11.6986 7.81896C11.7582 7.81703 11.8175 7.82742 11.8729 7.84948C11.9283 7.87153 11.9785 7.90477 12.0205 7.94713C12.0624 7.98948 12.0952 8.04004 12.1167 8.09563C12.1382 8.15123 12.1481 8.21066 12.1456 8.27023C12.1431 8.32979 12.1283 8.38819 12.1022 8.44179C12.0761 8.49539 12.0392 8.54302 11.9939 8.58171C11.9485 8.62041 11.8957 8.64933 11.8386 8.66667L7.62664 10.4L11.83 12.1333C11.8869 12.1532 11.9391 12.1847 11.9831 12.2259C12.0272 12.2671 12.0622 12.317 12.0858 12.3725C12.1095 12.428 12.1213 12.4878 12.1205 12.5481C12.1197 12.6083 12.1064 12.6678 12.0813 12.7227ZM10.4 3.666V4.056C10.3981 4.24055 10.3374 4.41969 10.2266 4.56733C9.74197 5.10261 9.22071 5.6036 8.66664 6.06667V7.072C8.66726 7.16003 8.64105 7.24616 8.59151 7.31893C8.54197 7.39169 8.47144 7.44764 8.38931 7.47933L6.51731 8.23333H6.45664L4.57597 7.47933C4.50032 7.44236 4.43708 7.38414 4.39399 7.3118C4.35089 7.23946 4.32981 7.15613 4.33331 7.072V6.06667C3.77327 5.60422 3.24621 5.10322 2.75597 4.56733C2.65139 4.41759 2.59679 4.23862 2.59997 4.056V3.666C2.67008 2.73442 3.06512 1.85705 3.71614 1.18702C4.36715 0.516997 5.2328 0.0968799 6.16197 0L6.81197 0C7.74645 0.0894688 8.61918 0.506533 9.2758 1.17743C9.93242 1.84832 10.3306 2.72982 10.4 3.666ZM5.19997 3.46667C5.19997 3.23681 5.10866 3.01637 4.94613 2.85384C4.7836 2.69131 4.56316 2.6 4.33331 2.6C4.10345 2.6 3.88301 2.69131 3.72048 2.85384C3.55795 3.01637 3.46664 3.23681 3.46664 3.46667C3.46664 3.69652 3.55795 3.91696 3.72048 4.07949C3.88301 4.24202 4.10345 4.33333 4.33331 4.33333C4.56316 4.33333 4.7836 4.24202 4.94613 4.07949C5.10866 3.91696 5.19997 3.69652 5.19997 3.46667ZM6.06664 6.06667C6.06664 5.95174 6.02099 5.84152 5.93972 5.76025C5.85845 5.67899 5.74823 5.63333 5.63331 5.63333C5.51838 5.63333 5.40816 5.67899 5.32689 5.76025C5.24563 5.84152 5.19997 5.95174 5.19997 6.06667V6.5C5.19997 6.61493 5.24563 6.72515 5.32689 6.80641C5.40816 6.88768 5.51838 6.93333 5.63331 6.93333C5.74823 6.93333 5.85845 6.88768 5.93972 6.80641C6.02099 6.72515 6.06664 6.61493 6.06664 6.5V6.06667ZM7.79997 6.06667C7.79997 5.95174 7.75432 5.84152 7.67305 5.76025C7.59179 5.67899 7.48157 5.63333 7.36664 5.63333C7.25171 5.63333 7.14149 5.67899 7.06023 5.76025C6.97896 5.84152 6.93331 5.95174 6.93331 6.06667V6.5C6.93331 6.61493 6.97896 6.72515 7.06023 6.80641C7.14149 6.88768 7.25171 6.93333 7.36664 6.93333C7.48157 6.93333 7.59179 6.88768 7.67305 6.80641C7.75432 6.72515 7.79997 6.61493 7.79997 6.5V6.06667ZM9.53331 3.46667C9.53331 3.23681 9.442 3.01637 9.27947 2.85384C9.11693 2.69131 8.89649 2.6 8.66664 2.6C8.43679 2.6 8.21635 2.69131 8.05381 2.85384C7.89128 3.01637 7.79997 3.23681 7.79997 3.46667C7.79997 3.69652 7.89128 3.91696 8.05381 4.07949C8.21635 4.24202 8.43679 4.33333 8.66664 4.33333C8.89649 4.33333 9.11693 4.24202 9.27947 4.07949C9.442 3.91696 9.53331 3.69652 9.53331 3.46667Z" fill="#007B65"/>
</g>
</svg>
