<svg width="25" height="26" viewBox="0 0 25 26" fill="none" xmlns="http://www.w3.org/2000/svg">
<g id="logo googleg 48dp">
<path id="Shape" fill-rule="evenodd" clip-rule="evenodd" d="M24.5 13.2842C24.5 12.3979 24.4205 11.5456 24.2727 10.7274H12.5V15.5626H19.2273C18.9375 17.1251 18.0568 18.449 16.733 19.3354V22.4717H20.7727C23.1364 20.2956 24.5 17.0911 24.5 13.2842Z" fill="#4285F4"/>
<path id="Shape_2" fill-rule="evenodd" clip-rule="evenodd" d="M12.5 25.5C15.875 25.5 18.7046 24.3807 20.7728 22.4716L16.733 19.3352C15.6137 20.0852 14.1819 20.5284 12.5 20.5284C9.24436 20.5284 6.48868 18.3295 5.50573 15.375H1.32959V18.6136C3.38641 22.6989 7.61368 25.5 12.5 25.5Z" fill="#34A853"/>
<path id="Shape_3" fill-rule="evenodd" clip-rule="evenodd" d="M5.50568 15.3747C5.25568 14.6247 5.11364 13.8236 5.11364 12.9997C5.11364 12.1759 5.25568 11.3747 5.50568 10.6247V7.38611H1.32955C0.482954 9.07361 0 10.9827 0 12.9997C0 15.0168 0.482954 16.9259 1.32955 18.6134L5.50568 15.3747Z" fill="#FBBC05"/>
<path id="Shape_4" fill-rule="evenodd" clip-rule="evenodd" d="M12.5 5.47159C14.3353 5.47159 15.983 6.10227 17.2785 7.34091L20.8637 3.75568C18.6989 1.73864 15.8694 0.5 12.5 0.5C7.61368 0.5 3.38641 3.30114 1.32959 7.38636L5.50573 10.625C6.48868 7.67045 9.24436 5.47159 12.5 5.47159Z" fill="#EA4335"/>
</g>
</svg>
