<svg width="159" height="119" viewBox="0 0 159 119" fill="none" xmlns="http://www.w3.org/2000/svg">
<g id="Group">
<path id="Vector" d="M46.4316 20.0676C46.4316 20.0676 64.3387 33.6566 91.562 8.24759C115.739 -14.3175 135.48 21.2852 135.618 38.3347C135.797 60.4205 111.441 78.0925 123.261 92.5988C135.081 107.105 99.8203 131.06 80.8167 110.329C57.1769 84.5397 50.7726 105.493 37.298 105.493C27.6271 105.493 7.77194 81.4636 21.1799 63.5863C32.4626 48.5428 26.3093 43.5501 23.3294 38.3347C19.0309 30.813 29.239 10.3968 46.4316 20.0676Z" fill="#F4E2BD"/>
<g id="Group_2">
<path id="Vector_2" d="M118.323 50.0973C119.285 50.455 120.337 50.4788 121.338 50.249C125.531 49.2866 139.948 46.7384 137.443 57.9105C136.897 60.1271 128.454 72.5406 140.479 77.0721C141.36 77.4083 142.292 77.5918 143.235 77.6148C146.937 77.6911 154.274 76.817 157.344 73.6912C161.054 69.9152 157.001 71.7059 157.001 71.7059C157.001 71.7059 142.899 77.8598 137.918 71.3309C137.364 70.6044 137.011 69.5493 136.91 68.641C136.734 67.0662 137.434 64.9851 138.352 63.1735C139.596 60.7216 145.564 49.692 132.605 46.4789C129.62 45.768 125.284 45.1294 119.693 47.4833C116.432 48.8562 117.154 49.6632 118.323 50.0973Z" fill="#D51A52"/>
<path id="Vector_3" d="M121.208 45.9799L117.455 47.3847C116.159 47.8696 115.502 49.3131 115.987 50.6088L116.173 51.1059C116.658 52.4016 118.101 53.0588 119.397 52.5739L123.151 51.1691C124.446 50.6842 125.104 49.2407 124.619 47.945L124.433 47.4479C123.948 46.1522 122.504 45.4949 121.208 45.9799Z" fill="#D51A52"/>
<path id="Vector_4" d="M98.1685 50.0448L85.7897 54.6777C85.1419 54.9201 84.8133 55.6419 85.0557 56.2897L85.1045 56.42C85.3469 57.0679 86.0687 57.3965 86.7165 57.154L99.0953 52.5211C99.7432 52.2787 100.072 51.5569 99.8293 50.9091L99.7806 50.7788C99.5381 50.1309 98.8164 49.8023 98.1685 50.0448Z" fill="#FCFDFB"/>
<path id="Vector_5" d="M101.624 59.2757L89.2448 63.9086C88.597 64.1511 88.2683 64.8728 88.5108 65.5207L88.5596 65.651C88.802 66.2988 89.5238 66.6275 90.1716 66.385L102.55 61.7521C103.198 61.5096 103.527 60.7878 103.284 60.14L103.236 60.0097C102.993 59.3618 102.272 59.0332 101.624 59.2757Z" fill="#FCFDFB"/>
<path id="Vector_6" d="M113.052 43.745L103.019 47.4999C101.724 47.9848 101.066 49.4283 101.551 50.724L104.977 59.8763C105.462 61.172 106.905 61.8292 108.201 61.3443L118.234 57.5894C119.529 57.1045 120.187 55.661 119.702 54.3653L116.276 45.213C115.791 43.9173 114.348 43.2601 113.052 43.745Z" fill="#DDA938"/>
<path id="Vector_7" d="M104.056 46.1464L94.0228 49.9012C92.7271 50.3862 92.0699 51.8297 92.5548 53.1254L96.6414 64.0444C97.1263 65.3401 98.5698 65.9974 99.8655 65.5124L109.898 61.7575C111.194 61.2726 111.851 59.8291 111.366 58.5334L107.28 47.6144C106.795 46.3187 105.351 45.6614 104.056 46.1464Z" fill="#E3B759"/>
<path id="Vector_8" d="M105.627 43.9301L105.548 43.9596C104.684 44.2828 104.246 45.2452 104.569 46.109L110.294 61.4053C110.617 62.2691 111.58 62.7073 112.444 62.384L112.522 62.3546C113.386 62.0313 113.824 61.069 113.501 60.2052L107.776 44.9088C107.453 44.045 106.49 43.6068 105.627 43.9301Z" fill="#D51A52"/>
<path id="Vector_9" d="M3.32506 53.7102C3.32506 53.7102 23.4743 48.0477 20.5489 61.0935C20.0409 63.1577 12.7281 73.7864 21.4388 78.8895C23.3092 79.9853 25.4677 80.4706 27.6353 80.4593C31.5216 80.4391 37.6826 79.6911 40.4504 76.8739C44.1598 73.0978 40.1074 74.8885 40.1074 74.8885C40.1074 74.8885 28.5354 79.6486 22.582 75.8542C20.5492 74.5586 19.6278 72.0501 20.1798 69.7035C20.4619 68.5379 20.8916 67.413 21.4583 66.3561C22.7531 63.9311 28.6704 52.8746 15.7112 49.6616C12.7259 48.9506 8.39001 48.312 2.79927 50.6659C-2.79148 53.0198 3.32506 53.7102 3.32506 53.7102Z" fill="#D51A52"/>
<path id="Vector_10" d="M43.1596 71.9691L39.4061 73.3739C38.1104 73.8588 37.4532 75.3023 37.9381 76.598L38.1242 77.0952C38.6091 78.3909 40.0526 79.0481 41.3483 78.5632L45.1018 77.1584C46.3975 76.6735 47.0547 75.23 46.5698 73.9343L46.3837 73.4371C45.8988 72.1414 44.4553 71.4842 43.1596 71.9691Z" fill="#D51A52"/>
<path id="Vector_11" d="M49.5012 65.7934L43.9384 67.8754C42.6427 68.3603 41.9854 69.8038 42.4703 71.0995L45.1527 78.2666C45.6376 79.5623 47.0811 80.2196 48.3768 79.7346L53.9397 77.6527C55.2354 77.1677 55.8926 75.7242 55.4077 74.4285L52.7253 67.2614C52.2404 65.9657 50.7969 65.3085 49.5012 65.7934Z" fill="#DDA938"/>
<path id="Vector_12" d="M58.7625 60.2754L50.4667 63.3803C49.171 63.8652 48.5137 65.3087 48.9987 66.6044L53.0852 77.5234C53.5702 78.8191 55.0136 79.4764 56.3093 78.9914L64.6051 75.8866C65.9008 75.4017 66.5581 73.9582 66.0731 72.6625L61.9866 61.7435C61.5016 60.4478 60.0581 59.7905 58.7625 60.2754Z" fill="#E3B759"/>
<path id="Vector_13" d="M60.5197 58.0141L60.441 58.0435C59.5772 58.3668 59.139 59.3292 59.4623 60.193L65.1872 75.4893C65.5105 76.3531 66.4728 76.7913 67.3366 76.468L67.4153 76.4385C68.2791 76.1153 68.7172 75.1529 68.394 74.2891L62.6691 58.9928C62.3458 58.129 61.3835 57.6908 60.5197 58.0141Z" fill="#D51A52"/>
<g id="Group_3">
<path id="Vector_14" d="M81.7035 48.2692C81.4048 48.236 81.1305 48.0883 80.9385 47.857C80.7465 47.6257 80.6517 47.329 80.6741 47.0292L81.2931 35.7233C81.33 35.048 81.9003 34.5349 82.5475 34.5946L83.4493 34.6781C84.0965 34.7378 84.5599 35.3461 84.4694 36.0167L82.9483 47.2391C82.9133 47.538 82.7644 47.8119 82.5325 48.0038C82.3007 48.1957 82.0037 48.2908 81.7035 48.2692V48.2692Z" fill="#D51A52"/>
<path id="Vector_15" d="M76.3587 49.2441C76.2658 49.2714 76.1684 49.2801 76.0721 49.2697C75.9758 49.2594 75.8825 49.2302 75.7975 49.1838C75.7125 49.1374 75.6374 49.0747 75.5767 48.9993C75.5159 48.9239 75.4706 48.8372 75.4433 48.7443L73.2329 41.7114C73.1686 41.5114 73.1863 41.2941 73.282 41.1071C73.3778 40.9201 73.5439 40.7787 73.7437 40.714L74.316 40.5414C74.4142 40.5127 74.5173 40.5047 74.6187 40.5179C74.7202 40.5311 74.8178 40.5651 74.9054 40.6179C74.993 40.6708 75.0687 40.7411 75.1277 40.8247C75.1867 40.9082 75.2278 41.0031 75.2483 41.1033L76.8866 48.3089C76.9322 48.5026 76.9033 48.7064 76.8055 48.8797C76.7076 49.053 76.5481 49.1831 76.3587 49.2441V49.2441Z" fill="#D51A52"/>
<path id="Vector_16" d="M73.376 53.2996C72.98 53.7903 72.1835 53.7845 71.5704 53.2863L60.6845 44.4419C60.0343 43.9135 59.8424 43.0391 60.2625 42.5189L60.8481 41.7934C61.2683 41.273 62.1313 41.3156 62.7466 41.8873L73.0469 51.4573C73.627 51.9962 73.7721 52.8089 73.376 53.2996Z" fill="#D51A52"/>
</g>
<g id="Group_4">
<path id="Vector_17" d="M78.408 76.1439C78.6884 76.2522 78.9158 76.4651 79.0423 76.7378C79.1689 77.0104 79.1848 77.3215 79.0866 77.6056L75.6007 88.3782C75.3925 89.0217 74.7101 89.3718 74.0996 89.1491L73.2486 88.8383C72.6381 88.6152 72.3451 87.9085 72.6042 87.2836L76.941 76.8219C77.0511 76.5416 77.2651 76.3147 77.5384 76.1884C77.8117 76.0621 78.1232 76.0461 78.408 76.1439V76.1439Z" fill="#D51A52"/>
<path id="Vector_18" d="M83.8246 76.5662C83.9214 76.5635 84.0178 76.58 84.1083 76.6145C84.1987 76.6491 84.2815 76.7012 84.3518 76.7678C84.4222 76.8343 84.4787 76.9141 84.5182 77.0025C84.5577 77.091 84.5794 77.1863 84.5821 77.2831L84.923 84.6473C84.9341 84.8571 84.8615 85.0628 84.7212 85.2191C84.5809 85.3754 84.3842 85.4697 84.1744 85.4813L83.5769 85.5021C83.4746 85.5047 83.373 85.4861 83.2782 85.4474C83.1835 85.4087 83.0979 85.3509 83.0267 85.2774C82.9554 85.204 82.9002 85.1166 82.8645 85.0208C82.8288 84.9249 82.8133 84.8227 82.819 84.7206L83.0756 77.3356C83.081 77.1367 83.161 76.9471 83.2998 76.8045C83.4385 76.662 83.6259 76.5769 83.8246 76.5662V76.5662Z" fill="#D51A52"/>
<path id="Vector_19" d="M87.7438 73.407C88.2522 73.0337 89.0207 73.2428 89.4863 73.881L97.7524 85.212C98.2462 85.8889 98.2084 86.783 97.6689 87.179L96.9174 87.7308C96.3784 88.1267 95.5549 87.865 95.106 87.1552L87.5909 75.2719C87.1684 74.6031 87.2356 73.7803 87.7438 73.407Z" fill="#D51A52"/>
</g>
</g>
</g>
</svg>
