<svg width="18" height="18" viewBox="0 0 18 18" fill="none" xmlns="http://www.w3.org/2000/svg">
<g id="lucide/map-pin">
<g id="Vector">
<path d="M14.9995 7.49976C14.9995 11.2445 10.8453 15.1445 9.45026 16.349C9.3203 16.4467 9.16211 16.4996 8.99951 16.4996C8.83691 16.4996 8.67872 16.4467 8.54876 16.349C7.15376 15.1445 2.99951 11.2445 2.99951 7.49976C2.99951 5.90846 3.63165 4.38233 4.75687 3.25712C5.88209 2.1319 7.40821 1.49976 8.99951 1.49976C10.5908 1.49976 12.1169 2.1319 13.2422 3.25712C14.3674 4.38233 14.9995 5.90846 14.9995 7.49976Z" stroke="#D99D81" stroke-width="1.5" stroke-linecap="round" stroke-linejoin="round"/>
<path d="M8.99951 9.74976C10.2422 9.74976 11.2495 8.7424 11.2495 7.49976C11.2495 6.25712 10.2422 5.24976 8.99951 5.24976C7.75687 5.24976 6.74951 6.25712 6.74951 7.49976C6.74951 8.7424 7.75687 9.74976 8.99951 9.74976Z" stroke="#D99D81" stroke-width="1.5" stroke-linecap="round" stroke-linejoin="round"/>
</g>
</g>
</svg>
