<svg width="16" height="16" viewBox="0 0 16 16" fill="none" xmlns="http://www.w3.org/2000/svg">
<g id="lucide/pencil" clip-path="url(#clip0_126_11116)">
<path id="Vector" d="M10.0001 3.33351L12.6668 6.00017M14.1161 4.54151C14.4686 4.18912 14.6666 3.71115 14.6667 3.21274C14.6668 2.71433 14.4688 2.23631 14.1165 1.88384C13.7641 1.53137 13.2861 1.33331 12.7877 1.33325C12.2893 1.33319 11.8113 1.53112 11.4588 1.88351L2.56145 10.7828C2.40667 10.9372 2.29219 11.1272 2.22812 11.3362L1.34745 14.2375C1.33022 14.2952 1.32892 14.3564 1.34369 14.4147C1.35845 14.4731 1.38873 14.5263 1.43132 14.5688C1.4739 14.6114 1.5272 14.6416 1.58556 14.6562C1.64392 14.6709 1.70516 14.6695 1.76279 14.6522L4.66479 13.7722C4.87357 13.7087 5.06357 13.5949 5.21812 13.4408L14.1161 4.54151Z" stroke="#5B913B" stroke-width="1.77778" stroke-linecap="round" stroke-linejoin="round"/>
<line id="Line 11" x1="5.82818e-08" y1="15.3333" x2="16" y2="15.3333" stroke="#5B913B" stroke-width="1.33333"/>
</g>
<defs>
<clipPath id="clip0_126_11116">
<rect width="16" height="16" fill="white"/>
</clipPath>
</defs>
</svg>
