<svg width="124" height="121" viewBox="0 0 124 121" fill="none" xmlns="http://www.w3.org/2000/svg">
<g id="Group">
<path id="Vector" d="M86.9584 21.1915C86.9584 21.1915 78.6182 42.4742 111.015 62.0797C139.786 79.4913 110.413 108.661 93.7682 113.515C72.2067 119.803 48.1743 100.862 37.2515 116.442C26.3287 132.023 -6.86993 104.151 8.15589 79.8183C26.8472 49.5495 4.57207 49.0819 0.842713 35.8973C-1.83388 26.4347 16.1834 0.356014 37.3871 8.52791C55.2296 15.4042 58.4119 8.00144 62.6902 3.6419C68.8606 -2.64573 91.6628 1.69226 86.9584 21.1915Z" fill="#F4E2BD"/>
<g id="Group_2">
<g id="Group_3">
<path id="Vector_2" d="M50.5555 91.483C45.1683 91.2382 39.0465 84.7899 41.7402 83.0758C44.4338 81.3617 44.1072 77.7703 43.1278 77.2809C37.0876 74.9138 35.6184 69.6083 34.3124 62.8336C33.0065 56.0588 33.741 34.5104 33.741 34.5104L41.332 30.6741L62.3093 29.4497L68.2678 39.3262C68.2678 39.3262 66.0836 45.2227 65.9008 51.1224C67.3308 49.9797 69.8285 48.4059 71.6957 49.5291C72.9037 50.2539 73.6318 51.3868 73.9418 52.6537C74.3434 54.2959 74.0398 56.1699 73.1648 57.6915C72.5575 58.7493 71.8455 59.804 70.8597 60.614C69.4653 61.7599 67.5197 62.4097 64.5192 61.8808C64.64 63.4904 67.7776 63.5591 67.7776 65.2012C67.7776 66.7521 67.7191 69.1192 67.7776 70.017C68.2673 77.3631 72.2669 79.8934 74.3073 82.3422C76.3477 84.7909 55.9427 91.7279 50.5555 91.483Z" fill="#EED49C"/>
<path id="Vector_3" d="M34.9664 61.1188C38.2567 61.1188 40.9241 58.2184 40.9241 54.6407C40.9241 51.0629 38.2567 48.1626 34.9664 48.1626C31.6761 48.1626 29.0088 51.0629 29.0088 54.6407C29.0088 58.2184 31.6761 61.1188 34.9664 61.1188Z" fill="#D51A52"/>
<path id="Vector_4" d="M34.9662 59.835C37.6254 59.835 39.7811 57.5095 39.7811 54.6409C39.7811 51.7723 37.6254 49.4468 34.9662 49.4468C32.3071 49.4468 30.1514 51.7723 30.1514 54.6409C30.1514 57.5095 32.3071 59.835 34.9662 59.835Z" fill="#F8EED7"/>
<path id="Vector_5" d="M50.6783 61.6086C53.8564 61.6086 56.4328 58.9043 56.4328 55.5684C56.4328 52.2326 53.8564 49.5283 50.6783 49.5283C47.5002 49.5283 44.9238 52.2326 44.9238 55.5684C44.9238 58.9043 47.5002 61.6086 50.6783 61.6086Z" fill="#D51A52"/>
<path id="Vector_6" d="M50.6781 60.6698C53.208 60.6698 55.259 58.3858 55.259 55.5683C55.259 52.7508 53.208 50.4668 50.6781 50.4668C48.1481 50.4668 46.0972 52.7508 46.0972 55.5683C46.0972 58.3858 48.1481 60.6698 50.6781 60.6698Z" fill="#F8EED7"/>
<path id="Vector_7" d="M40.6372 52.6528C40.6372 52.6528 43.5966 51.528 45.5456 53.6502C45.5456 54.0176 45.25 54.6407 45.25 54.6407C45.25 54.6407 42.636 52.5891 40.6372 54.1397C40.3118 53.4978 40.1156 52.8019 40.6372 52.6528Z" fill="#D51A52"/>
<path id="Vector_8" d="M55.9487 53.9922L65.8103 50.4668L65.7164 51.3395L56.2639 55.2891L55.9487 53.9922Z" fill="#D51A52"/>
<path id="Vector_9" d="M15.8886 97.4498C15.671 96.8587 15.5855 96.2271 15.6382 95.5994C15.6909 94.9717 15.8805 94.3632 16.1937 93.8167L18.7226 89.361C18.7226 89.361 19.0491 87.6197 26.4496 86.5858C33.8501 85.5519 40.9696 83.6922 41.7405 83.076C41.7405 83.076 54.8174 94.309 74.0717 82.0674C74.0717 82.0674 89.7892 90.939 93.3806 91.2656C95.4903 91.4576 97.1306 95.6111 98.125 99.006C98.2899 99.5695 98.3374 100.161 98.2644 100.744C98.1915 101.326 97.9996 101.888 97.7008 102.393C97.402 102.898 97.0026 103.337 96.5273 103.682C96.052 104.027 95.511 104.27 94.9378 104.397C79.0473 107.932 23.791 118.561 15.8886 97.4498Z" fill="#D51A52"/>
<path id="Vector_10" d="M70.8607 60.6128C68.9964 65.0499 67.723 66.917 66.2277 66.7509C64.6671 66.5779 64.1741 64.0538 64.2785 61.8339C67.4161 62.4445 69.4306 61.7882 70.8607 60.6128Z" fill="#D51A52"/>
<path id="Vector_11" d="M73.9821 52.5484C73.9691 52.5843 73.956 52.6202 73.9429 52.6529C73.6327 51.3861 72.9047 50.2531 71.6968 49.5283C69.7803 48.376 67.1977 50.0638 65.7873 51.2163C66.055 46.0773 65.6045 40.2624 62.7999 38.9989C57.9024 36.795 57.7033 37.2848 54.6604 37.4481C51.8035 37.6015 44.8002 38.0423 43.6118 37.3534C44.3954 38.0882 48.0946 41.2419 53.9943 41.5292C54.6604 42.0189 54.2293 42.4271 53.5768 42.3454C52.9242 42.2638 44.0268 42.1006 37.3337 33.6933C37.3337 33.6933 33.4517 40.9546 33.5365 47.4875C33.5365 47.4875 31.0482 42.5901 32.5995 35.5704C33.5365 30.3466 35.9461 30.836 35.9461 30.836C35.9461 30.836 34.3129 19.1643 45.4953 20.2254C48.7602 20.6336 54.3107 25.4494 58.0653 25.3677C61.82 25.286 65.2482 25.531 65.2482 25.531C65.2482 25.531 70.5537 24.7147 71.4516 31.8977C71.4905 33.3436 72.5344 33.9953 75.3695 34.3464C78.2922 34.7082 77.8183 42.2638 73.9821 52.5484Z" fill="#D51A52"/>
</g>
<path id="Vector_12" d="M100.678 114.619C108.184 114.619 114.269 108.534 114.269 101.028C114.269 93.5226 108.184 87.438 100.678 87.438C93.1725 87.438 87.0879 93.5226 87.0879 101.028C87.0879 108.534 93.1725 114.619 100.678 114.619Z" fill="#D51A52" stroke="#FCFDFB" stroke-width="8.94643" stroke-miterlimit="10"/>
<path id="Vector_13" d="M103.576 96.5212L100.839 99.2577C100.818 99.2788 100.793 99.2956 100.765 99.307C100.738 99.3184 100.708 99.3243 100.678 99.3243C100.648 99.3243 100.619 99.3184 100.591 99.307C100.563 99.2956 100.538 99.2788 100.517 99.2577L97.7808 96.5212C97.5667 96.3108 97.2782 96.1934 96.978 96.1947C96.6778 96.196 96.3902 96.3158 96.178 96.5281C95.9657 96.7404 95.8459 97.0279 95.8446 97.3281C95.8433 97.6283 95.9606 97.9169 96.1711 98.1309L98.9075 100.867C98.9502 100.91 98.9742 100.968 98.9742 101.028C98.9742 101.089 98.9502 101.147 98.9075 101.189L96.1711 103.926C95.9576 104.139 95.8377 104.429 95.8377 104.731C95.8377 105.032 95.9576 105.322 96.1711 105.535C96.3845 105.749 96.674 105.869 96.9759 105.869C97.2778 105.869 97.5673 105.749 97.7807 105.535L100.517 102.799C100.538 102.778 100.563 102.761 100.591 102.75C100.619 102.738 100.648 102.732 100.678 102.732C100.708 102.732 100.738 102.738 100.765 102.75C100.793 102.761 100.818 102.778 100.839 102.799L103.576 105.536C103.79 105.746 104.078 105.863 104.379 105.862C104.679 105.861 104.966 105.741 105.179 105.529C105.391 105.316 105.511 105.029 105.512 104.729C105.513 104.429 105.396 104.14 105.185 103.926L102.449 101.189C102.428 101.168 102.411 101.143 102.399 101.115C102.388 101.088 102.382 101.058 102.382 101.028C102.382 100.998 102.388 100.969 102.399 100.941C102.411 100.914 102.428 100.888 102.449 100.867L105.185 98.1309C105.399 97.9174 105.519 97.6279 105.519 97.3261C105.519 97.0242 105.399 96.7347 105.185 96.5212C104.972 96.3078 104.682 96.1879 104.38 96.1879C104.079 96.1879 103.789 96.3078 103.576 96.5212Z" fill="#FCFDFB"/>
</g>
</g>
</svg>
