<svg width="20" height="20" viewBox="0 0 20 20" fill="none" xmlns="http://www.w3.org/2000/svg">
<g id="lucide/handshake">
<path id="Vector" d="M9.1665 14.1666L10.8332 15.8333C10.9973 15.9974 11.1922 16.1276 11.4067 16.2165C11.6212 16.3053 11.851 16.351 12.0832 16.351C12.3153 16.351 12.5452 16.3053 12.7597 16.2165C12.9741 16.1276 13.169 15.9974 13.3332 15.8333C13.4973 15.6691 13.6275 15.4742 13.7164 15.2598C13.8052 15.0453 13.8509 14.8154 13.8509 14.5833C13.8509 14.3511 13.8052 14.1212 13.7164 13.9068C13.6275 13.6923 13.4973 13.4974 13.3332 13.3333M11.6665 11.6666L13.7498 13.7499C14.0814 14.0815 14.531 14.2677 14.9998 14.2677C15.4687 14.2677 15.9183 14.0815 16.2498 13.7499C16.5814 13.4184 16.7676 12.9688 16.7676 12.4999C16.7676 12.0311 16.5814 11.5815 16.2498 11.2499L13.0165 8.0166C12.5478 7.54843 11.9123 7.28546 11.2498 7.28546C10.5873 7.28546 9.95192 7.54843 9.48317 8.0166L8.74984 8.74993C8.41832 9.08145 7.96868 9.2677 7.49984 9.2677C7.031 9.2677 6.58136 9.08145 6.24984 8.74993C5.91832 8.41841 5.73207 7.96877 5.73207 7.49993C5.73207 7.03109 5.91832 6.58145 6.24984 6.24993L8.5915 3.90826C9.35171 3.15005 10.3431 2.66706 11.4087 2.53574C12.4743 2.40443 13.5533 2.63229 14.4748 3.18326L14.8665 3.4166C15.2213 3.63075 15.6432 3.70503 16.0498 3.62493L17.4998 3.33326M17.4998 2.49993L18.3332 11.6666H16.6665M2.49984 2.49993L1.6665 11.6666L7.08317 17.0833C7.41469 17.4148 7.86433 17.601 8.33317 17.601C8.80201 17.601 9.25165 17.4148 9.58317 17.0833C9.91469 16.7517 10.1009 16.3021 10.1009 15.8333C10.1009 15.3644 9.91469 14.9148 9.58317 14.5833M2.49984 3.33326H9.1665" stroke="black" stroke-width="1.66667" stroke-linecap="round" stroke-linejoin="round"/>
</g>
</svg>
