<svg width="15" height="15" viewBox="0 0 15 15" fill="none" xmlns="http://www.w3.org/2000/svg">
<g id="mdi:organic-outline">
<path id="Vector" d="M5.025 10.2125C5.65625 8.64375 6.36875 6.85 9.0625 6.25C9.0625 6.25 5.9375 6.25 4.925 9.14375C4.925 9.14375 4.375 8.59375 4.375 7.96875C4.375 7.34375 5 6.01875 6.5625 5.70625C7.00625 5.625 7.5 5.54375 7.9875 5.475C9.21875 5.3125 10.4 5.1375 10.625 4.6875C10.625 4.6875 9.6875 10 6.25 10C6.1375 10 5.98125 9.9625 5.83125 9.90625L5.5375 10.625L4.94375 10.4187L5.025 10.2125ZM7.5 2.5C10.2562 2.5 12.5 4.74375 12.5 7.5C12.5 10.2562 10.2562 12.5 7.5 12.5C4.74375 12.5 2.5 10.2562 2.5 7.5C2.5 4.74375 4.74375 2.5 7.5 2.5ZM7.5 1.25C4.0625 1.25 1.25 4.0625 1.25 7.5C1.25 10.9375 4.0625 13.75 7.5 13.75C10.9375 13.75 13.75 10.9375 13.75 7.5C13.75 4.0625 10.9375 1.25 7.5 1.25Z" fill="#007B65"/>
</g>
</svg>
