<svg width="9" height="15" viewBox="0 0 9 15" fill="none" xmlns="http://www.w3.org/2000/svg">
<g id="Group">
<path id="Vector" d="M3.25 3.8125V1.875C3.25 1.5 3.5 1.25 3.875 1.25H5.125C5.5 1.25 5.75 1.5 5.75 1.875V3.8125" stroke="#D51A52" stroke-width="1.25" stroke-linecap="round" stroke-linejoin="round"/>
<path id="Vector_2" d="M7.625 9.0625C7.625 8.3125 7.0625 7.6875 6.375 7.5625V7.5C6.70652 7.5 7.02446 7.3683 7.25888 7.13388C7.4933 6.89946 7.625 6.58152 7.625 6.25C7.625 5.58696 7.36161 4.95107 6.89277 4.48223C6.42393 4.01339 5.78804 3.75 5.125 3.75H3.875C3.21196 3.75 2.57607 4.01339 2.10723 4.48223C1.63839 4.95107 1.375 5.58696 1.375 6.25C1.375 6.58152 1.5067 6.89946 1.74112 7.13388C1.97554 7.3683 2.29348 7.5 2.625 7.5V7.5625C2.30044 7.65716 2.01535 7.85454 1.8125 8.125C1.60965 8.39546 1.5 8.72442 1.5 9.0625C1.5 9.40058 1.60965 9.72954 1.8125 10C2.01535 10.2705 2.30044 10.4678 2.625 10.5625V10.625C2.29348 10.625 1.97554 10.7567 1.74112 10.9911C1.5067 11.2255 1.375 11.5435 1.375 11.875V12.5C1.375 12.8315 1.5067 13.1495 1.74112 13.3839C1.97554 13.6183 2.29348 13.75 2.625 13.75H6.375C6.70652 13.75 7.02446 13.6183 7.25888 13.3839C7.4933 13.1495 7.625 12.8315 7.625 12.5V11.875C7.625 11.5435 7.4933 11.2255 7.25888 10.9911C7.02446 10.7567 6.70652 10.625 6.375 10.625V10.5625C7.0625 10.4375 7.625 9.8125 7.625 9.0625Z" stroke="#D51A52" stroke-width="1.25" stroke-linecap="round" stroke-linejoin="round"/>
</g>
</svg>
