<svg width="20" height="20" viewBox="0 0 20 20" fill="none" xmlns="http://www.w3.org/2000/svg">
<g id="lucide/user-round-x">
<path id="Vector" d="M1.6665 17.5C1.6665 16.3401 1.96914 15.2002 2.54453 14.193C3.11991 13.1858 3.94812 12.3462 4.94733 11.7571C5.94654 11.168 7.08216 10.8498 8.24199 10.8339C9.40182 10.8181 10.5457 11.1051 11.5607 11.6667M14.1665 14.1667L18.3332 18.3333M18.3332 14.1667L14.1665 18.3333M12.4998 6.66667C12.4998 8.96785 10.6344 10.8333 8.33317 10.8333C6.03198 10.8333 4.1665 8.96785 4.1665 6.66667C4.1665 4.36548 6.03198 2.5 8.33317 2.5C10.6344 2.5 12.4998 4.36548 12.4998 6.66667Z" stroke="#D51A52" stroke-width="1.66667" stroke-linecap="round" stroke-linejoin="round"/>
</g>
</svg>
